<?xml version="1.0" encoding="utf-8"?>
<!-- Svg Vector Icons : http://www.onlinewebfonts.com/icon -->
<!DOCTYPE svg PUBLIC "-//W3C//DTD SVG 1.1//EN" "http://www.w3.org/Graphics/SVG/1.1/DTD/svg11.dtd">
<svg version="1.1" xmlns="http://www.w3.org/2000/svg" xmlns:xlink="http://www.w3.org/1999/xlink" x="0px" y="0px" viewBox="0 0 1000 1000" enable-background="new 0 0 1000 1000" xml:space="preserve">
<metadata> Svg Vector Icons : http://www.onlinewebfonts.com/icon </metadata>
<g><path d="M951.5,309.3c-24.7-58.4-60-110.8-105-155.7c-45-45-97.4-80.3-155.7-105C630.3,23,566.1,10,500,10c-66.1,0-130.3,13-190.7,38.5c-58.4,24.7-110.8,60-155.7,105c-45,45-80.3,97.4-105,155.7C23,369.7,10,433.9,10,500s13,130.3,38.5,190.7c24.7,58.3,60,110.8,105,155.7c45,45,97.4,80.3,155.7,105C369.7,977,433.9,990,500,990c66.1,0,130.3-13,190.7-38.5c58.3-24.7,110.8-60,155.7-105c45-45,80.3-97.4,105-155.7C977,630.3,990,566.1,990,500S977,369.7,951.5,309.3z M932.7,682.8C909,738.7,875.2,788.9,832,832c-43.1,43.1-93.3,77-149.3,100.6c-57.9,24.5-119.4,36.9-182.8,36.9s-124.9-12.4-182.8-36.9C261.3,909,211.1,875.2,168,832c-43.1-43.1-77-93.3-100.6-149.3C42.8,624.9,30.4,563.4,30.4,500s12.4-124.9,36.9-182.8C91,261.3,124.8,211.1,168,168c43.1-43.1,93.3-77,149.3-100.6C375.1,42.8,436.6,30.4,500,30.4s124.9,12.4,182.8,36.9C738.7,91,788.9,124.8,832,168s77,93.3,100.6,149.3c24.5,57.9,36.9,119.4,36.9,182.8S957.2,624.9,932.7,682.8z"/><path d="M578.2,524.3c42.7-26.5,71.4-73.7,71.5-127.9c0-83.2-67-150.7-149.7-150.7c-82.7,0-149.7,67.5-149.7,150.7c0,54.2,28.7,101.4,71.4,127.9c-85.3,32.1-146.3,114.1-146.3,211.1c0,10.4,8.4,18.8,18.7,18.8s18.7-8.4,18.7-18.8c0-104,83.8-188.3,187.1-188.3c103.3,0,187.1,84.3,187.1,188.3c0,10.4,8.4,18.8,18.7,18.8c10.3,0,18.7-8.4,18.7-18.8C724.5,638.4,663.5,556.4,578.2,524.3z M387.7,396.4c0-62.4,50.3-113,112.3-113c62,0,112.3,50.6,112.3,113c0,62.4-50.3,113-112.3,113C438,509.4,387.7,458.8,387.7,396.4z"/></g>
</svg>